<mxfile host="app.diagrams.net" modified="2022-08-15T08:51:02.283Z" agent="5.0 (Macintosh; Intel Mac OS X 10_15_7) AppleWebKit/537.36 (KHTML, like Gecko) Chrome/104.0.0.0 Safari/537.36" etag="39Q_QSvkXTL8BRWfOzrb" version="20.1.3" type="github">
  <diagram id="R2lEEEUBdFMjLlhIrx00" name="Page-1">
    <mxGraphModel dx="1113" dy="593" grid="1" gridSize="10" guides="1" tooltips="1" connect="1" arrows="1" fold="1" page="1" pageScale="1" pageWidth="850" pageHeight="1100" math="0" shadow="0" extFonts="Permanent Marker^https://fonts.googleapis.com/css?family=Permanent+Marker">
      <root>
        <mxCell id="0" />
        <mxCell id="1" parent="0" />
        <mxCell id="gmKaakxkwhOTD4_wNAfQ-19" value="OKR&lt;br&gt;_____&lt;br&gt;okr" style="rounded=1;whiteSpace=wrap;html=1;fontFamily=Helvetica;fontSize=11;fillColor=#f8cecc;strokeColor=#b85450;" vertex="1" parent="1">
          <mxGeometry x="200" y="280" width="120" height="60" as="geometry" />
        </mxCell>
        <mxCell id="gmKaakxkwhOTD4_wNAfQ-24" value="内容" style="ellipse;whiteSpace=wrap;html=1;fontFamily=Helvetica;fontSize=11;fontColor=default;" vertex="1" parent="1">
          <mxGeometry x="80" y="260" width="70" height="50" as="geometry" />
        </mxCell>
        <mxCell id="gmKaakxkwhOTD4_wNAfQ-25" value="O / KR 类型" style="ellipse;whiteSpace=wrap;html=1;fontFamily=Helvetica;fontSize=11;fontColor=default;" vertex="1" parent="1">
          <mxGeometry x="80" y="190" width="70" height="50" as="geometry" />
        </mxCell>
        <mxCell id="gmKaakxkwhOTD4_wNAfQ-26" value="权重" style="ellipse;whiteSpace=wrap;html=1;fontFamily=Helvetica;fontSize=11;fontColor=default;" vertex="1" parent="1">
          <mxGeometry x="85" y="460" width="60" height="50" as="geometry" />
        </mxCell>
        <mxCell id="gmKaakxkwhOTD4_wNAfQ-27" value="进度" style="ellipse;whiteSpace=wrap;html=1;fontFamily=Helvetica;fontSize=11;fontColor=default;" vertex="1" parent="1">
          <mxGeometry x="85" y="530" width="60" height="40" as="geometry" />
        </mxCell>
        <mxCell id="gmKaakxkwhOTD4_wNAfQ-28" value="周期" style="ellipse;whiteSpace=wrap;html=1;fontFamily=Helvetica;fontSize=11;fontColor=default;" vertex="1" parent="1">
          <mxGeometry x="77.5" y="20" width="60" height="40" as="geometry" />
        </mxCell>
        <mxCell id="gmKaakxkwhOTD4_wNAfQ-29" value="所属用户" style="ellipse;whiteSpace=wrap;html=1;fontFamily=Helvetica;fontSize=11;fontColor=default;" vertex="1" parent="1">
          <mxGeometry x="75" y="70" width="65" height="50" as="geometry" />
        </mxCell>
        <mxCell id="gmKaakxkwhOTD4_wNAfQ-30" value="权限类型" style="ellipse;whiteSpace=wrap;html=1;fontFamily=Helvetica;fontSize=11;fontColor=default;" vertex="1" parent="1">
          <mxGeometry x="85" y="580" width="60" height="40" as="geometry" />
        </mxCell>
        <mxCell id="gmKaakxkwhOTD4_wNAfQ-31" value="高亮内容" style="ellipse;whiteSpace=wrap;html=1;fontFamily=Helvetica;fontSize=11;fontColor=default;" vertex="1" parent="1">
          <mxGeometry x="80" y="390" width="70" height="50" as="geometry" />
        </mxCell>
        <mxCell id="gmKaakxkwhOTD4_wNAfQ-32" value="排序序号" style="ellipse;whiteSpace=wrap;html=1;fontFamily=Helvetica;fontSize=11;fontColor=default;" vertex="1" parent="1">
          <mxGeometry x="80" y="130" width="60" height="50" as="geometry" />
        </mxCell>
        <mxCell id="gmKaakxkwhOTD4_wNAfQ-33" value="@人 id" style="ellipse;whiteSpace=wrap;html=1;fontFamily=Helvetica;fontSize=11;fontColor=default;" vertex="1" parent="1">
          <mxGeometry x="85" y="330" width="60" height="40" as="geometry" />
        </mxCell>
        <mxCell id="gmKaakxkwhOTD4_wNAfQ-35" value="" style="endArrow=none;html=1;rounded=0;labelBackgroundColor=default;fontFamily=Helvetica;fontSize=11;fontColor=default;strokeColor=default;shape=connector;exitX=1;exitY=0.5;exitDx=0;exitDy=0;entryX=0;entryY=0.5;entryDx=0;entryDy=0;" edge="1" parent="1" source="gmKaakxkwhOTD4_wNAfQ-28" target="gmKaakxkwhOTD4_wNAfQ-19">
          <mxGeometry width="50" height="50" relative="1" as="geometry">
            <mxPoint x="180" y="60" as="sourcePoint" />
            <mxPoint x="230" y="10" as="targetPoint" />
          </mxGeometry>
        </mxCell>
        <mxCell id="gmKaakxkwhOTD4_wNAfQ-36" value="" style="endArrow=none;html=1;rounded=0;labelBackgroundColor=default;fontFamily=Helvetica;fontSize=11;fontColor=default;strokeColor=default;shape=connector;exitX=1;exitY=0.5;exitDx=0;exitDy=0;entryX=0;entryY=0.5;entryDx=0;entryDy=0;" edge="1" parent="1" source="gmKaakxkwhOTD4_wNAfQ-29" target="gmKaakxkwhOTD4_wNAfQ-19">
          <mxGeometry width="50" height="50" relative="1" as="geometry">
            <mxPoint x="150" y="120" as="sourcePoint" />
            <mxPoint x="200" y="70" as="targetPoint" />
          </mxGeometry>
        </mxCell>
        <mxCell id="gmKaakxkwhOTD4_wNAfQ-37" value="" style="endArrow=none;html=1;rounded=0;labelBackgroundColor=default;fontFamily=Helvetica;fontSize=11;fontColor=default;strokeColor=default;shape=connector;exitX=1;exitY=0.5;exitDx=0;exitDy=0;" edge="1" parent="1" source="gmKaakxkwhOTD4_wNAfQ-32">
          <mxGeometry width="50" height="50" relative="1" as="geometry">
            <mxPoint x="190" y="180" as="sourcePoint" />
            <mxPoint x="200" y="310" as="targetPoint" />
          </mxGeometry>
        </mxCell>
        <mxCell id="gmKaakxkwhOTD4_wNAfQ-41" value="" style="endArrow=none;html=1;rounded=0;labelBackgroundColor=default;fontFamily=Helvetica;fontSize=11;fontColor=default;strokeColor=default;shape=connector;exitX=1;exitY=0.5;exitDx=0;exitDy=0;entryX=0;entryY=0.5;entryDx=0;entryDy=0;" edge="1" parent="1" source="gmKaakxkwhOTD4_wNAfQ-25" target="gmKaakxkwhOTD4_wNAfQ-19">
          <mxGeometry width="50" height="50" relative="1" as="geometry">
            <mxPoint x="200" y="190" as="sourcePoint" />
            <mxPoint x="250" y="140" as="targetPoint" />
          </mxGeometry>
        </mxCell>
        <mxCell id="gmKaakxkwhOTD4_wNAfQ-42" value="" style="endArrow=none;html=1;rounded=0;labelBackgroundColor=default;fontFamily=Helvetica;fontSize=11;fontColor=default;strokeColor=default;shape=connector;exitX=1;exitY=0.5;exitDx=0;exitDy=0;entryX=0;entryY=0.5;entryDx=0;entryDy=0;" edge="1" parent="1" source="gmKaakxkwhOTD4_wNAfQ-24" target="gmKaakxkwhOTD4_wNAfQ-19">
          <mxGeometry width="50" height="50" relative="1" as="geometry">
            <mxPoint x="210" y="200" as="sourcePoint" />
            <mxPoint x="260" y="150" as="targetPoint" />
          </mxGeometry>
        </mxCell>
        <mxCell id="gmKaakxkwhOTD4_wNAfQ-43" value="" style="endArrow=none;html=1;rounded=0;labelBackgroundColor=default;fontFamily=Helvetica;fontSize=11;fontColor=default;strokeColor=default;shape=connector;exitX=1;exitY=0.5;exitDx=0;exitDy=0;entryX=0;entryY=0.5;entryDx=0;entryDy=0;" edge="1" parent="1" source="gmKaakxkwhOTD4_wNAfQ-33" target="gmKaakxkwhOTD4_wNAfQ-19">
          <mxGeometry width="50" height="50" relative="1" as="geometry">
            <mxPoint x="220" y="210" as="sourcePoint" />
            <mxPoint x="270" y="160" as="targetPoint" />
          </mxGeometry>
        </mxCell>
        <mxCell id="gmKaakxkwhOTD4_wNAfQ-44" value="" style="endArrow=none;html=1;rounded=0;labelBackgroundColor=default;fontFamily=Helvetica;fontSize=11;fontColor=default;strokeColor=default;shape=connector;exitX=0.986;exitY=0.347;exitDx=0;exitDy=0;exitPerimeter=0;" edge="1" parent="1" source="gmKaakxkwhOTD4_wNAfQ-31">
          <mxGeometry width="50" height="50" relative="1" as="geometry">
            <mxPoint x="230" y="220" as="sourcePoint" />
            <mxPoint x="200" y="310" as="targetPoint" />
          </mxGeometry>
        </mxCell>
        <mxCell id="gmKaakxkwhOTD4_wNAfQ-45" value="" style="endArrow=none;html=1;rounded=0;labelBackgroundColor=default;fontFamily=Helvetica;fontSize=11;fontColor=default;strokeColor=default;shape=connector;entryX=0;entryY=0.5;entryDx=0;entryDy=0;" edge="1" parent="1" target="gmKaakxkwhOTD4_wNAfQ-19">
          <mxGeometry width="50" height="50" relative="1" as="geometry">
            <mxPoint x="145" y="480" as="sourcePoint" />
            <mxPoint x="195" y="430" as="targetPoint" />
          </mxGeometry>
        </mxCell>
        <mxCell id="gmKaakxkwhOTD4_wNAfQ-46" value="" style="endArrow=none;html=1;rounded=0;labelBackgroundColor=default;fontFamily=Helvetica;fontSize=11;fontColor=default;strokeColor=default;shape=connector;exitX=1;exitY=0.5;exitDx=0;exitDy=0;" edge="1" parent="1" source="gmKaakxkwhOTD4_wNAfQ-27">
          <mxGeometry width="50" height="50" relative="1" as="geometry">
            <mxPoint x="250" y="240" as="sourcePoint" />
            <mxPoint x="200" y="310" as="targetPoint" />
          </mxGeometry>
        </mxCell>
        <mxCell id="gmKaakxkwhOTD4_wNAfQ-47" value="" style="endArrow=none;html=1;rounded=0;labelBackgroundColor=default;fontFamily=Helvetica;fontSize=11;fontColor=default;strokeColor=default;shape=connector;exitX=1;exitY=0.5;exitDx=0;exitDy=0;entryX=0;entryY=0.5;entryDx=0;entryDy=0;" edge="1" parent="1" source="gmKaakxkwhOTD4_wNAfQ-30" target="gmKaakxkwhOTD4_wNAfQ-19">
          <mxGeometry width="50" height="50" relative="1" as="geometry">
            <mxPoint x="260" y="250" as="sourcePoint" />
            <mxPoint x="310" y="200" as="targetPoint" />
          </mxGeometry>
        </mxCell>
        <mxCell id="gmKaakxkwhOTD4_wNAfQ-49" value="@的用户id&lt;br&gt;_____&lt;br&gt;okr_at_user_record" style="rounded=1;whiteSpace=wrap;html=1;fontFamily=Helvetica;fontSize=11;fillColor=#d5e8d4;strokeColor=#82b366;" vertex="1" parent="1">
          <mxGeometry x="650" y="280" width="120" height="60" as="geometry" />
        </mxCell>
        <mxCell id="gmKaakxkwhOTD4_wNAfQ-50" value="O / KR中@" style="rhombus;whiteSpace=wrap;html=1;fontFamily=Helvetica;fontSize=11;fillColor=#fff2cc;strokeColor=#d6b656;" vertex="1" parent="1">
          <mxGeometry x="440" y="285" width="95" height="50" as="geometry" />
        </mxCell>
        <mxCell id="gmKaakxkwhOTD4_wNAfQ-51" value="okr_id" style="ellipse;whiteSpace=wrap;html=1;fontFamily=Helvetica;fontSize=11;fillColor=#f8cecc;strokeColor=#b85450;" vertex="1" parent="1">
          <mxGeometry x="830" y="250" width="100" height="55" as="geometry" />
        </mxCell>
        <mxCell id="gmKaakxkwhOTD4_wNAfQ-52" value="@的同事 id及信息" style="ellipse;whiteSpace=wrap;html=1;fontFamily=Helvetica;fontSize=11;fontColor=default;" vertex="1" parent="1">
          <mxGeometry x="830" y="315" width="100" height="55" as="geometry" />
        </mxCell>
        <mxCell id="gmKaakxkwhOTD4_wNAfQ-58" value="" style="endArrow=none;html=1;rounded=0;labelBackgroundColor=default;fontFamily=Helvetica;fontSize=11;fontColor=default;strokeColor=default;shape=connector;exitX=1;exitY=0.5;exitDx=0;exitDy=0;entryX=0;entryY=0.5;entryDx=0;entryDy=0;" edge="1" parent="1" source="gmKaakxkwhOTD4_wNAfQ-49" target="gmKaakxkwhOTD4_wNAfQ-51">
          <mxGeometry width="50" height="50" relative="1" as="geometry">
            <mxPoint x="760" y="220" as="sourcePoint" />
            <mxPoint x="810" y="170" as="targetPoint" />
          </mxGeometry>
        </mxCell>
        <mxCell id="gmKaakxkwhOTD4_wNAfQ-59" value="" style="endArrow=none;html=1;rounded=0;labelBackgroundColor=default;fontFamily=Helvetica;fontSize=11;fontColor=default;strokeColor=default;shape=connector;exitX=1;exitY=0.5;exitDx=0;exitDy=0;entryX=0;entryY=0.5;entryDx=0;entryDy=0;" edge="1" parent="1" source="gmKaakxkwhOTD4_wNAfQ-49" target="gmKaakxkwhOTD4_wNAfQ-52">
          <mxGeometry width="50" height="50" relative="1" as="geometry">
            <mxPoint x="780" y="420" as="sourcePoint" />
            <mxPoint x="830" y="370" as="targetPoint" />
          </mxGeometry>
        </mxCell>
        <mxCell id="gmKaakxkwhOTD4_wNAfQ-60" value="" style="endArrow=none;html=1;rounded=0;labelBackgroundColor=default;fontFamily=Helvetica;fontSize=11;fontColor=default;strokeColor=default;shape=connector;exitX=1;exitY=0.5;exitDx=0;exitDy=0;entryX=0;entryY=0.5;entryDx=0;entryDy=0;" edge="1" parent="1" source="gmKaakxkwhOTD4_wNAfQ-19" target="gmKaakxkwhOTD4_wNAfQ-50">
          <mxGeometry width="50" height="50" relative="1" as="geometry">
            <mxPoint x="320" y="220" as="sourcePoint" />
            <mxPoint x="370" y="170" as="targetPoint" />
          </mxGeometry>
        </mxCell>
        <mxCell id="gmKaakxkwhOTD4_wNAfQ-61" value="" style="endArrow=none;html=1;rounded=0;labelBackgroundColor=default;fontFamily=Helvetica;fontSize=11;fontColor=default;strokeColor=default;shape=connector;exitX=1;exitY=0.5;exitDx=0;exitDy=0;entryX=0;entryY=0.5;entryDx=0;entryDy=0;" edge="1" parent="1" source="gmKaakxkwhOTD4_wNAfQ-50" target="gmKaakxkwhOTD4_wNAfQ-49">
          <mxGeometry width="50" height="50" relative="1" as="geometry">
            <mxPoint x="330" y="230" as="sourcePoint" />
            <mxPoint x="380" y="180" as="targetPoint" />
          </mxGeometry>
        </mxCell>
        <mxCell id="gmKaakxkwhOTD4_wNAfQ-62" value="&lt;font color=&quot;#cc0000&quot;&gt;1&lt;/font&gt;" style="text;html=1;align=center;verticalAlign=middle;resizable=0;points=[];autosize=1;strokeColor=none;fillColor=none;fontSize=11;fontFamily=Helvetica;fontColor=default;" vertex="1" parent="1">
          <mxGeometry x="320" y="280" width="30" height="30" as="geometry" />
        </mxCell>
        <mxCell id="gmKaakxkwhOTD4_wNAfQ-63" value="&lt;font color=&quot;#cc0000&quot;&gt;n&lt;/font&gt;" style="text;html=1;align=center;verticalAlign=middle;resizable=0;points=[];autosize=1;strokeColor=none;fillColor=none;fontSize=11;fontFamily=Helvetica;fontColor=default;" vertex="1" parent="1">
          <mxGeometry x="620" y="280" width="30" height="30" as="geometry" />
        </mxCell>
        <mxCell id="gmKaakxkwhOTD4_wNAfQ-65" value="权限&lt;br&gt;_____&lt;br&gt;&lt;span style=&quot;font-size: 11px;&quot;&gt;okr_auth&lt;/span&gt;" style="rounded=1;whiteSpace=wrap;html=1;fontFamily=Helvetica;fontSize=11;fillColor=#e1d5e7;strokeColor=#9673a6;" vertex="1" parent="1">
          <mxGeometry x="650" y="440" width="120" height="60" as="geometry" />
        </mxCell>
        <mxCell id="gmKaakxkwhOTD4_wNAfQ-66" value="okr_id" style="ellipse;whiteSpace=wrap;html=1;fontFamily=Helvetica;fontSize=11;fillColor=#f8cecc;strokeColor=#b85450;" vertex="1" parent="1">
          <mxGeometry x="830" y="392.5" width="100" height="55" as="geometry" />
        </mxCell>
        <mxCell id="gmKaakxkwhOTD4_wNAfQ-67" value="&lt;span style=&quot;font-size: 11px;&quot;&gt;权限用户/部门 id&lt;/span&gt;" style="ellipse;whiteSpace=wrap;html=1;fontFamily=Helvetica;fontSize=11;fontColor=default;" vertex="1" parent="1">
          <mxGeometry x="830" y="457.5" width="100" height="55" as="geometry" />
        </mxCell>
        <mxCell id="gmKaakxkwhOTD4_wNAfQ-68" value="" style="endArrow=none;html=1;rounded=0;labelBackgroundColor=default;fontFamily=Helvetica;fontSize=11;fontColor=default;strokeColor=default;shape=connector;entryX=0;entryY=0.5;entryDx=0;entryDy=0;exitX=1;exitY=0.5;exitDx=0;exitDy=0;" edge="1" parent="1" target="gmKaakxkwhOTD4_wNAfQ-66" source="gmKaakxkwhOTD4_wNAfQ-65">
          <mxGeometry width="50" height="50" relative="1" as="geometry">
            <mxPoint x="710" y="470" as="sourcePoint" />
            <mxPoint x="810" y="330" as="targetPoint" />
          </mxGeometry>
        </mxCell>
        <mxCell id="gmKaakxkwhOTD4_wNAfQ-69" value="" style="endArrow=none;html=1;rounded=0;labelBackgroundColor=default;fontFamily=Helvetica;fontSize=11;fontColor=default;strokeColor=default;shape=connector;entryX=-0.015;entryY=0.456;entryDx=0;entryDy=0;exitX=1;exitY=0.5;exitDx=0;exitDy=0;entryPerimeter=0;" edge="1" parent="1" target="gmKaakxkwhOTD4_wNAfQ-70" source="gmKaakxkwhOTD4_wNAfQ-65">
          <mxGeometry width="50" height="50" relative="1" as="geometry">
            <mxPoint x="770" y="470" as="sourcePoint" />
            <mxPoint x="830" y="530" as="targetPoint" />
          </mxGeometry>
        </mxCell>
        <mxCell id="gmKaakxkwhOTD4_wNAfQ-70" value="类型&lt;br&gt;（用户/部门）" style="ellipse;whiteSpace=wrap;html=1;fontFamily=Helvetica;fontSize=11;fontColor=default;" vertex="1" parent="1">
          <mxGeometry x="830" y="522.5" width="100" height="55" as="geometry" />
        </mxCell>
        <mxCell id="gmKaakxkwhOTD4_wNAfQ-71" value="" style="endArrow=none;html=1;rounded=0;labelBackgroundColor=default;fontFamily=Helvetica;fontSize=11;fontColor=default;strokeColor=default;shape=connector;entryX=0;entryY=0.5;entryDx=0;entryDy=0;exitX=1;exitY=0.5;exitDx=0;exitDy=0;" edge="1" parent="1" source="gmKaakxkwhOTD4_wNAfQ-65" target="gmKaakxkwhOTD4_wNAfQ-67">
          <mxGeometry width="50" height="50" relative="1" as="geometry">
            <mxPoint x="780" y="480" as="sourcePoint" />
            <mxPoint x="838.5" y="575.0800000000002" as="targetPoint" />
          </mxGeometry>
        </mxCell>
        <mxCell id="gmKaakxkwhOTD4_wNAfQ-72" value="可见性" style="rhombus;whiteSpace=wrap;html=1;fontFamily=Helvetica;fontSize=11;fillColor=#fff2cc;strokeColor=#d6b656;rotation=0;" vertex="1" parent="1">
          <mxGeometry x="440" y="407.5" width="95" height="50" as="geometry" />
        </mxCell>
        <mxCell id="gmKaakxkwhOTD4_wNAfQ-73" value="" style="endArrow=none;html=1;rounded=0;labelBackgroundColor=default;fontFamily=Helvetica;fontSize=11;fontColor=default;strokeColor=default;shape=connector;entryX=0;entryY=0.5;entryDx=0;entryDy=0;exitX=1;exitY=0.5;exitDx=0;exitDy=0;" edge="1" parent="1" target="gmKaakxkwhOTD4_wNAfQ-72" source="gmKaakxkwhOTD4_wNAfQ-19">
          <mxGeometry width="50" height="50" relative="1" as="geometry">
            <mxPoint x="300" y="380" as="sourcePoint" />
            <mxPoint x="360" y="250" as="targetPoint" />
          </mxGeometry>
        </mxCell>
        <mxCell id="gmKaakxkwhOTD4_wNAfQ-74" value="" style="endArrow=none;html=1;rounded=0;labelBackgroundColor=default;fontFamily=Helvetica;fontSize=11;fontColor=default;strokeColor=default;shape=connector;exitX=1;exitY=0.5;exitDx=0;exitDy=0;entryX=0;entryY=0.5;entryDx=0;entryDy=0;" edge="1" parent="1" source="gmKaakxkwhOTD4_wNAfQ-72" target="gmKaakxkwhOTD4_wNAfQ-65">
          <mxGeometry width="50" height="50" relative="1" as="geometry">
            <mxPoint x="320" y="310" as="sourcePoint" />
            <mxPoint x="640" y="390" as="targetPoint" />
          </mxGeometry>
        </mxCell>
        <mxCell id="gmKaakxkwhOTD4_wNAfQ-75" value="&lt;font color=&quot;#cc0000&quot;&gt;1&lt;/font&gt;" style="text;html=1;align=center;verticalAlign=middle;resizable=0;points=[];autosize=1;strokeColor=none;fillColor=none;fontSize=11;fontFamily=Helvetica;fontColor=default;" vertex="1" parent="1">
          <mxGeometry x="340" y="315" width="30" height="30" as="geometry" />
        </mxCell>
        <mxCell id="gmKaakxkwhOTD4_wNAfQ-76" value="&lt;font color=&quot;#cc0000&quot;&gt;1&lt;/font&gt;" style="text;html=1;align=center;verticalAlign=middle;resizable=0;points=[];autosize=1;strokeColor=none;fillColor=none;fontSize=11;fontFamily=Helvetica;fontColor=default;" vertex="1" parent="1">
          <mxGeometry x="620" y="440" width="30" height="30" as="geometry" />
        </mxCell>
        <mxCell id="gmKaakxkwhOTD4_wNAfQ-77" value="权限组&lt;br&gt;_____&lt;br&gt;&lt;span style=&quot;font-size: 11px;&quot;&gt;okr_auth_group&lt;/span&gt;" style="rounded=1;whiteSpace=wrap;html=1;fontFamily=Helvetica;fontSize=11;fillColor=#dae8fc;strokeColor=#6c8ebf;" vertex="1" parent="1">
          <mxGeometry x="650" y="687.5" width="120" height="60" as="geometry" />
        </mxCell>
        <mxCell id="gmKaakxkwhOTD4_wNAfQ-78" value="所属用户" style="ellipse;whiteSpace=wrap;html=1;fontFamily=Helvetica;fontSize=11;" vertex="1" parent="1">
          <mxGeometry x="830" y="640" width="100" height="55" as="geometry" />
        </mxCell>
        <mxCell id="gmKaakxkwhOTD4_wNAfQ-79" value="&lt;span style=&quot;font-size: 11px;&quot;&gt;名称、描述&lt;/span&gt;" style="ellipse;whiteSpace=wrap;html=1;fontFamily=Helvetica;fontSize=11;fontColor=default;" vertex="1" parent="1">
          <mxGeometry x="830" y="705" width="100" height="55" as="geometry" />
        </mxCell>
        <mxCell id="gmKaakxkwhOTD4_wNAfQ-80" value="" style="endArrow=none;html=1;rounded=0;labelBackgroundColor=default;fontFamily=Helvetica;fontSize=11;fontColor=default;strokeColor=default;shape=connector;entryX=0;entryY=0.5;entryDx=0;entryDy=0;exitX=1;exitY=0.5;exitDx=0;exitDy=0;" edge="1" parent="1" source="gmKaakxkwhOTD4_wNAfQ-77" target="gmKaakxkwhOTD4_wNAfQ-78">
          <mxGeometry width="50" height="50" relative="1" as="geometry">
            <mxPoint x="710" y="717.5" as="sourcePoint" />
            <mxPoint x="810" y="577.5" as="targetPoint" />
          </mxGeometry>
        </mxCell>
        <mxCell id="gmKaakxkwhOTD4_wNAfQ-81" value="" style="endArrow=none;html=1;rounded=0;labelBackgroundColor=default;fontFamily=Helvetica;fontSize=11;fontColor=default;strokeColor=default;shape=connector;entryX=-0.015;entryY=0.456;entryDx=0;entryDy=0;exitX=1;exitY=0.5;exitDx=0;exitDy=0;entryPerimeter=0;" edge="1" parent="1" source="gmKaakxkwhOTD4_wNAfQ-77" target="gmKaakxkwhOTD4_wNAfQ-82">
          <mxGeometry width="50" height="50" relative="1" as="geometry">
            <mxPoint x="770" y="717.5" as="sourcePoint" />
            <mxPoint x="830" y="777.5" as="targetPoint" />
          </mxGeometry>
        </mxCell>
        <mxCell id="gmKaakxkwhOTD4_wNAfQ-82" value="是否为默认权限组" style="ellipse;whiteSpace=wrap;html=1;fontFamily=Helvetica;fontSize=11;fontColor=default;" vertex="1" parent="1">
          <mxGeometry x="830" y="770" width="100" height="55" as="geometry" />
        </mxCell>
        <mxCell id="gmKaakxkwhOTD4_wNAfQ-83" value="" style="endArrow=none;html=1;rounded=0;labelBackgroundColor=default;fontFamily=Helvetica;fontSize=11;fontColor=default;strokeColor=default;shape=connector;entryX=0;entryY=0.5;entryDx=0;entryDy=0;exitX=1;exitY=0.5;exitDx=0;exitDy=0;" edge="1" parent="1" source="gmKaakxkwhOTD4_wNAfQ-77" target="gmKaakxkwhOTD4_wNAfQ-79">
          <mxGeometry width="50" height="50" relative="1" as="geometry">
            <mxPoint x="780" y="727.5" as="sourcePoint" />
            <mxPoint x="838.5" y="822.5800000000002" as="targetPoint" />
          </mxGeometry>
        </mxCell>
        <mxCell id="gmKaakxkwhOTD4_wNAfQ-84" value="" style="endArrow=none;html=1;rounded=0;labelBackgroundColor=default;fontFamily=Helvetica;fontSize=11;fontColor=default;strokeColor=default;shape=connector;entryX=-0.015;entryY=0.456;entryDx=0;entryDy=0;exitX=1;exitY=0.5;exitDx=0;exitDy=0;entryPerimeter=0;" edge="1" parent="1" target="gmKaakxkwhOTD4_wNAfQ-85" source="gmKaakxkwhOTD4_wNAfQ-77">
          <mxGeometry width="50" height="50" relative="1" as="geometry">
            <mxPoint x="780" y="800" as="sourcePoint" />
            <mxPoint x="840" y="860" as="targetPoint" />
          </mxGeometry>
        </mxCell>
        <mxCell id="gmKaakxkwhOTD4_wNAfQ-85" value="类型，如部分可见、公开、权限组" style="ellipse;whiteSpace=wrap;html=1;fontFamily=Helvetica;fontSize=11;fontColor=default;" vertex="1" parent="1">
          <mxGeometry x="830" y="840" width="100" height="55" as="geometry" />
        </mxCell>
        <mxCell id="gmKaakxkwhOTD4_wNAfQ-89" value="O / KR中@" style="rhombus;whiteSpace=wrap;html=1;fontFamily=Helvetica;fontSize=11;fillColor=#fff2cc;strokeColor=#d6b656;rotation=0;" vertex="1" parent="1">
          <mxGeometry x="430" y="570" width="95" height="50" as="geometry" />
        </mxCell>
        <mxCell id="gmKaakxkwhOTD4_wNAfQ-90" value="" style="endArrow=none;html=1;rounded=0;labelBackgroundColor=default;fontFamily=Helvetica;fontSize=11;fontColor=default;strokeColor=default;shape=connector;entryX=0;entryY=0.5;entryDx=0;entryDy=0;" edge="1" parent="1" target="gmKaakxkwhOTD4_wNAfQ-89">
          <mxGeometry width="50" height="50" relative="1" as="geometry">
            <mxPoint x="320" y="310" as="sourcePoint" />
            <mxPoint x="350" y="500" as="targetPoint" />
          </mxGeometry>
        </mxCell>
        <mxCell id="gmKaakxkwhOTD4_wNAfQ-91" value="" style="endArrow=none;html=1;rounded=0;labelBackgroundColor=default;fontFamily=Helvetica;fontSize=11;fontColor=default;strokeColor=default;shape=connector;exitX=1;exitY=0.5;exitDx=0;exitDy=0;entryX=0;entryY=0.5;entryDx=0;entryDy=0;" edge="1" parent="1" source="gmKaakxkwhOTD4_wNAfQ-89" target="gmKaakxkwhOTD4_wNAfQ-77">
          <mxGeometry width="50" height="50" relative="1" as="geometry">
            <mxPoint x="310" y="560" as="sourcePoint" />
            <mxPoint x="640" y="720" as="targetPoint" />
          </mxGeometry>
        </mxCell>
        <mxCell id="gmKaakxkwhOTD4_wNAfQ-92" value="&lt;font color=&quot;#cc0000&quot;&gt;1&lt;/font&gt;" style="text;html=1;align=center;verticalAlign=middle;resizable=0;points=[];autosize=1;strokeColor=none;fillColor=none;fontSize=11;fontFamily=Helvetica;fontColor=default;" vertex="1" parent="1">
          <mxGeometry x="330" y="350" width="30" height="30" as="geometry" />
        </mxCell>
        <mxCell id="gmKaakxkwhOTD4_wNAfQ-93" value="&lt;font color=&quot;#cc0000&quot;&gt;1&lt;/font&gt;" style="text;html=1;align=center;verticalAlign=middle;resizable=0;points=[];autosize=1;strokeColor=none;fillColor=none;fontSize=11;fontFamily=Helvetica;fontColor=default;" vertex="1" parent="1">
          <mxGeometry x="620" y="680" width="30" height="30" as="geometry" />
        </mxCell>
      </root>
    </mxGraphModel>
  </diagram>
</mxfile>
